<svg xmlns="http://www.w3.org/2000/svg" viewBox="0 0 128 128">
  <style>
    .st0 { fill: #38a5dd; }
    .st1 { fill: #2c75ba; }
  </style>
  <path class="st0" d="M115.21,41.42c0,12.16.07,24.32,0,36.48a38,38,0,0,1-4.1,16.69c-6.36,12.79-16.63,21.36-29.47,27.13a86.77,86.77,0,0,1-11.29,4c-1.87.55-2,.47-2-1.47,0-4.91,0-9.83,0-14.74,0-3.54,0-7.08,0-10.62,0-1.75.23-2,1.87-2.62,5.31-2,10.23-4.62,14.2-8.78a27.22,27.22,0,0,0,7.13-15c1.22-7.72.68-15.53.79-23.3,0-1.33,0-2.67,0-4,0-.86-.18-1-1-.62-3.4,1.75-6.82,3.47-10.23,5.2q-5.88,3-11.77,6c-.7.36-1,.38-1-.58,0-5.54-.1-11.08,0-16.62.15-6.27,3-11.14,8-14.91s10.37-6.45,15.81-9.23,10.62-5.52,15.94-8.28c2-1,4-2,6-3.07.93-.5,1.18-.34,1.17.73,0,8.87,0,17.74,0,26.61Z" />
  <path class="st1" d="M13,41.52V4.05c0-1.64,0-1.59,1.45-.83C21.16,6.7,27.87,10.09,34.53,13.6c5,2.65,10.24,5,14.92,8.28,3.88,2.71,7.56,5.65,9.23,10.34A28.32,28.32,0,0,1,60,41.93c0,4.42-.1,8.83-.11,13.24,0,1-.35,1-1.09.59C51.59,52,44.32,48.34,37.09,44.59c-.87-.45-1.1-.42-1.09.62,0,6.58,0,13.16.08,19.73.1,5.64.81,11.19,3.45,16.33a28.15,28.15,0,0,0,12,12,46.3,46.3,0,0,0,7,3.07,1.92,1.92,0,0,1,1.47,2.11q0,13.17,0,26.35c0,1-.2,1.4-1.26,1.1a85.87,85.87,0,0,1-16.18-6.12,59.6,59.6,0,0,1-23-20.83A39.51,39.51,0,0,1,13,77.37C13,65.42,13,53.47,13,41.52Z" />
</svg>
